<?xml version="1.0" standalone="no"?>
<!DOCTYPE svg PUBLIC "-//W3C//DTD SVG 20010904//EN"
 "http://www.w3.org/TR/2001/REC-SVG-20010904/DTD/svg10.dtd">
<svg version="1.0" xmlns="http://www.w3.org/2000/svg"
 width="413.000000pt" height="170.000000pt" viewBox="0 0 413.000000 170.000000"
 preserveAspectRatio="xMidYMid meet">

<g transform="translate(0.000000,170.000000) scale(0.100000,-0.100000)"
fill="#000000" stroke="none">
<path d="M1107 1500 c-63 -50 -80 -105 -132 -430 -20 -124 -40 -229 -44 -233
-5 -5 -50 37 -101 92 -121 130 -174 149 -241 85 l-26 -25 -123 121 c-67 66
-125 120 -129 120 -3 0 -12 -4 -20 -9 -12 -8 -12 -18 -2 -68 14 -62 10 -108
-24 -328 -17 -116 -19 -224 -4 -278 16 -57 195 -258 303 -338 101 -75 222 -6
293 167 10 24 20 44 23 44 3 0 36 -31 74 -70 75 -75 117 -96 173 -85 53 10
124 81 161 162 32 70 89 249 125 388 11 44 21 82 23 84 2 2 19 -7 39 -19 48
-30 58 -19 85 85 34 131 37 205 11 258 -25 51 -127 141 -268 235 -103 69 -149
79 -196 42z m93 -80 c0 -22 -12 -87 -26 -145 -31 -128 -28 -136 83 -227 111
-89 115 -95 108 -147 -9 -76 -93 -363 -125 -431 -55 -113 -117 -163 -169 -135
-34 17 -110 90 -166 160 l-41 50 37 36 c57 57 89 173 149 549 45 283 63 329
128 330 19 0 22 -5 22 -40z m-495 -450 c18 -20 18 -38 -1 -245 -7 -77 5 -121
47 -170 13 -15 36 -41 50 -58 19 -21 24 -36 19 -46 -5 -9 -22 -45 -38 -81 -47
-104 -95 -142 -158 -126 -15 4 -66 47 -114 96 -73 74 -85 90 -69 95 47 15 72
76 114 278 35 165 44 197 67 239 25 43 54 50 83 18z"/>
</g>
</svg>
