<?xml version="1.0" standalone="no"?>
<!DOCTYPE svg PUBLIC "-//W3C//DTD SVG 20010904//EN"
 "http://www.w3.org/TR/2001/REC-SVG-20010904/DTD/svg10.dtd">
<svg version="1.0" xmlns="http://www.w3.org/2000/svg"
 width="211.000000pt" height="158.000000pt" viewBox="0 0 211.000000 158.000000"
 preserveAspectRatio="xMidYMid meet">

<g transform="translate(0.000000,158.000000) scale(0.100000,-0.100000)"
fill="#000000" stroke="none">
<path d="M1263 1413 c-25 -5 -69 -47 -89 -85 -12 -23 -55 -240 -94 -482 l-13
-78 -99 100 c-64 66 -109 103 -128 107 -33 7 -95 -18 -105 -42 -4 -12 -34 11
-120 96 -123 122 -153 136 -147 71 8 -90 3 -176 -18 -304 -28 -175 -24 -278
13 -334 44 -67 250 -270 289 -287 83 -34 171 22 230 145 18 36 33 66 34 68 1
2 25 -21 53 -51 67 -71 125 -102 172 -93 50 9 115 68 148 135 31 60 84 221
121 366 13 50 25 92 26 93 1 2 17 -7 34 -20 l32 -23 17 21 c25 31 65 215 58
270 -6 55 -38 97 -125 168 -92 74 -233 166 -252 165 -8 -1 -25 -4 -37 -6z m55
-89 c2 -17 -9 -77 -23 -133 -32 -126 -30 -129 95 -231 l91 -75 -6 -44 c-9 -58
-77 -295 -111 -384 -35 -90 -96 -157 -144 -157 -29 0 -45 11 -113 83 -115 119
-115 117 -74 158 42 42 70 115 91 239 9 52 30 173 46 268 35 204 38 218 58
257 32 63 85 74 90 19z m-463 -421 c18 -17 18 -59 -1 -224 -8 -73 7 -116 59
-175 61 -68 61 -68 32 -132 -54 -118 -102 -162 -162 -147 -15 3 -64 43 -110
87 l-82 81 25 19 c47 38 68 96 114 327 25 127 51 181 84 181 14 0 32 -8 41
-17z"/>
</g>
</svg>
